# xmcd
#
# Track frame offsets: 
#        150
#        13725
#        26440
#        35160
#        45140
#        57110
#        68355
#        77915
#        89160
#        99835
#
# Disc length: 1484 seconds
#
# Revision: 0
# Processed by: cddbd v1.5.2PL0 Copyright (c) Steve Scherf et al.
# Submitted via: ExactAudioCopy v0.95b3
#
DISCID=7005ca0a
DTITLE=Tony Booth - Letting Go
DYEAR=2005
DGENRE=Country
TTITLE0=Letting Go
TTITLE1=I Lived It Up
TTITLE2=Midnight Race
TTITLE3=Life - It Ain't Worth Living
TTITLE4=Not The Real Me
TTITLE5=Just A Man
TTITLE6=Cold Brown Bottle
TTITLE7=Watch Out For Lucy
TTITLE8=Irma Jackson
TTITLE9=One Too Many Times
EXTD=
EXTT0=
EXTT1=
EXTT2=
EXTT3=
EXTT4=
EXTT5=
EXTT6=
EXTT7=
EXTT8=
EXTT9=
PLAYORDER=
